<svg width="113" height="69" viewBox="0 0 113 69" fill="none" xmlns="http://www.w3.org/2000/svg">
<path d="M3.625 49.8125C2.375 49.1042 1.5 48.4167 1 47.75C0.5 47.0833 0.25 46.375 0.25 45.625C0.25 44.875 0.4375 44.0417 0.8125 43.125C1.1875 42.2083 1.625 41.1458 2.125 39.9375C2.25 39.6875 2.5 39.1875 2.875 38.4375C3.25 37.6458 3.66667 36.7292 4.125 35.6875C4.625 34.6458 5.14583 33.5625 5.6875 32.4375C6.27083 31.2708 6.79167 30.1667 7.25 29.125C7.75 28.0833 8.16667 27.1875 8.5 26.4375C8.875 25.6458 9.125 25.125 9.25 24.875C9.79167 23.7083 10.0208 22.6875 9.9375 21.8125C9.89583 20.8958 9.79167 20.0417 9.625 19.25C9.5 18.4583 9.4375 17.6875 9.4375 16.9375C9.47917 16.1875 9.875 15.3333 10.625 14.375C10.75 14.25 11.0208 13.9583 11.4375 13.5C11.8542 13.0417 12.2917 12.5625 12.75 12.0625C13.25 11.5208 13.7083 11.0417 14.125 10.625C14.5417 10.1667 14.7917 9.875 14.875 9.75C15.0833 9.5 15.6667 9.08333 16.625 8.5C17.625 7.91667 18.8333 7.29167 20.25 6.625C21.6667 5.91667 23.2292 5.20833 24.9375 4.5C26.6875 3.75 28.4167 3.10417 30.125 2.5625C31.8333 1.97917 33.4792 1.54167 35.0625 1.25C36.6458 0.958333 38 0.875 39.125 1C40.25 1.125 41.0625 1.52083 41.5625 2.1875C42.1042 2.85417 42.1875 3.875 41.8125 5.25C41.1875 7.5 40.1667 9.47917 38.75 11.1875C37.375 12.8958 35.9167 14.4167 34.375 15.75C32.8333 17.0833 31.3542 18.2708 29.9375 19.3125C28.5625 20.3542 27.5417 21.3333 26.875 22.25C31.875 22.4167 35.5208 23.0208 37.8125 24.0625C40.1458 25.1042 41.4583 26.4167 41.75 28C42.0833 29.5833 41.5833 31.3542 40.25 33.3125C38.9167 35.2292 37.0833 37.1458 34.75 39.0625C32.4167 40.9375 29.7708 42.7292 26.8125 44.4375C23.8542 46.1042 20.8958 47.4792 17.9375 48.5625C15.0208 49.6458 12.2708 50.3333 9.6875 50.625C7.14583 50.9167 5.125 50.6458 3.625 49.8125ZM8.5625 34.6875C7.77083 35.6458 7.04167 36.7083 6.375 37.875C5.70833 39 5.1875 40.125 4.8125 41.25C4.47917 42.3333 4.33333 43.375 4.375 44.375C4.41667 45.3333 4.72917 46.125 5.3125 46.75C5.89583 47.3333 6.77083 47.6875 7.9375 47.8125C9.14583 47.9375 10.75 47.7083 12.75 47.125C17.1667 46.125 21 44.8542 24.25 43.3125C27.5417 41.7708 30.25 40.1667 32.375 38.5C34.5417 36.7917 36.125 35.1042 37.125 33.4375C38.1667 31.7708 38.6458 30.3125 38.5625 29.0625C38.5208 27.7708 37.9167 26.7917 36.75 26.125C35.625 25.4583 33.9792 25.2708 31.8125 25.5625C29.6458 25.8125 26.9583 26.6667 23.75 28.125C20.5833 29.5417 16.9167 31.7292 12.75 34.6875C12.2917 35.0625 11.875 35.25 11.5 35.25C11.125 35.2083 10.7708 35.125 10.4375 35C10.1042 34.8333 9.79167 34.6875 9.5 34.5625C9.20833 34.4375 8.89583 34.4792 8.5625 34.6875ZM9.9375 29.4375C9.9375 29.5625 9.91667 29.75 9.875 30C9.875 30.25 9.875 30.5208 9.875 30.8125C9.875 31.0625 9.875 31.3125 9.875 31.5625C9.91667 31.8125 9.9375 32 9.9375 32.125C10.2708 32.0417 10.9583 31.6458 12 30.9375C13.0417 30.2292 14.2917 29.3125 15.75 28.1875C17.25 27.0625 18.875 25.7917 20.625 24.375C22.375 22.9167 24.125 21.4167 25.875 19.875C27.6667 18.2917 29.3542 16.7292 30.9375 15.1875C32.5625 13.6042 33.9583 12.125 35.125 10.75C36.2917 9.375 37.1667 8.16667 37.75 7.125C38.375 6.04167 38.5625 5.20833 38.3125 4.625C36.4792 4.375 34.5417 4.5 32.5 5C30.5 5.45833 28.5208 6.14583 26.5625 7.0625C24.6458 7.97917 22.8542 9.04167 21.1875 10.25C19.5208 11.4167 18.125 12.5625 17 13.6875C16.75 14.2292 16.3333 15.1875 15.75 16.5625C15.1667 17.9375 14.5208 19.3958 13.8125 20.9375C13.1458 22.4792 12.5 23.9375 11.875 25.3125C11.2917 26.6458 10.875 27.5833 10.625 28.125C10.625 28.2083 10.5208 28.4375 10.3125 28.8125C10.1042 29.1458 9.97917 29.3542 9.9375 29.4375ZM47.4375 49.3125C46.2292 48.4375 45.4375 47.3333 45.0625 46C44.7292 44.6667 44.6875 43.2292 44.9375 41.6875C45.1875 40.1042 45.625 38.4792 46.25 36.8125C46.9167 35.1458 47.625 33.5417 48.375 32C49.1667 30.4583 49.9167 29.0417 50.625 27.75C51.375 26.4583 51.9583 25.3958 52.375 24.5625C52.5 24.3125 52.7917 23.7083 53.25 22.75C53.75 21.7917 54.2708 20.75 54.8125 19.625C55.3542 18.5 55.8542 17.4583 56.3125 16.5C56.8125 15.5 57.125 14.875 57.25 14.625C57.375 14.4167 57.5417 14.0208 57.75 13.4375C58 12.8125 58.2708 12.1458 58.5625 11.4375C58.8542 10.7292 59.1667 10.0625 59.5 9.4375C59.875 8.77083 60.25 8.29167 60.625 8C61.0417 7.70833 61.4375 7.66667 61.8125 7.875C62.2292 8.08333 62.625 8.70833 63 9.75C62.8333 10.1667 62.4167 11 61.75 12.25C61.125 13.5 60.375 15 59.5 16.75C58.625 18.5 57.6458 20.4375 56.5625 22.5625C55.5208 24.6875 54.5 26.8333 53.5 29C52.5 31.1667 51.5625 33.2917 50.6875 35.375C49.8125 37.4167 49.0833 39.2917 48.5 41C47.9583 42.6667 47.625 44.0625 47.5 45.1875C47.4167 46.2708 47.625 46.9375 48.125 47.1875C48.7083 47.4792 49.4583 47.6042 50.375 47.5625C51.3333 47.4792 52.3125 47.3542 53.3125 47.1875C54.3125 47.0208 55.2917 46.8542 56.25 46.6875C57.2083 46.4792 58.0417 46.3958 58.75 46.4375C58.9167 46.8125 58.7917 47.1875 58.375 47.5625C57.9583 47.8958 57.375 48.2083 56.625 48.5C55.875 48.75 55 48.9792 54 49.1875C53.0417 49.3542 52.1042 49.4792 51.1875 49.5625C50.3125 49.6458 49.5208 49.6667 48.8125 49.625C48.1458 49.5833 47.6875 49.4792 47.4375 49.3125ZM69.3125 49.3125C67.5625 48.6042 66.4583 47.5417 66 46.125C65.5833 44.7083 65.6042 43.1458 66.0625 41.4375C66.5208 39.6875 67.3125 37.8958 68.4375 36.0625C69.5625 34.1875 70.8125 32.4792 72.1875 30.9375C73.5625 29.3958 74.9375 28.1042 76.3125 27.0625C77.7292 25.9792 78.9375 25.375 79.9375 25.25C82.5208 24.9167 84.5417 25.1042 86 25.8125C87.5 26.4792 88.5208 27.4583 89.0625 28.75C89.6042 30.0417 89.75 31.5625 89.5 33.3125C89.25 35.0208 88.6875 36.75 87.8125 38.5C86.9792 40.25 85.875 41.9375 84.5 43.5625C83.1667 45.1875 81.6667 46.5625 80 47.6875C78.375 48.7708 76.6458 49.5 74.8125 49.875C72.9792 50.2083 71.1458 50.0208 69.3125 49.3125ZM68.625 45.75C68.9583 47.0833 69.6667 47.8333 70.75 48C71.8333 48.125 73.0833 47.8542 74.5 47.1875C75.9583 46.4792 77.4792 45.4792 79.0625 44.1875C80.6458 42.8542 82.0833 41.4167 83.375 39.875C84.7083 38.3333 85.7917 36.7917 86.625 35.25C87.5 33.6667 87.9167 32.2917 87.875 31.125C87.875 29.9583 87.3125 29.0833 86.1875 28.5C85.1042 27.875 83.2708 27.75 80.6875 28.125C80.1042 28.6667 79.3542 29.3333 78.4375 30.125C77.5208 30.875 76.5625 31.7083 75.5625 32.625C74.6042 33.5417 73.6458 34.5417 72.6875 35.625C71.7292 36.6667 70.8958 37.75 70.1875 38.875C69.4792 40 68.9583 41.1458 68.625 42.3125C68.3333 43.4792 68.3333 44.625 68.625 45.75ZM82.8125 67.625C81.5208 67.1667 80.4792 66.4792 79.6875 65.5625C78.8542 64.6458 78.2292 63.6458 77.8125 62.5625C77.3542 61.5208 77.0833 60.4583 77 59.375C76.875 58.2917 76.8958 57.3333 77.0625 56.5C77.1875 55.6667 77.4375 55.0208 77.8125 54.5625C78.1458 54.1458 78.5417 54.0417 79 54.25C78.9583 57.875 79.3958 60.6042 80.3125 62.4375C81.1875 64.3125 82.3542 65.4792 83.8125 65.9375C85.2292 66.4375 86.8542 66.3333 88.6875 65.625C90.4792 64.9167 92.2917 63.8125 94.125 62.3125C96 60.8542 97.7708 59.0833 99.4375 57C101.146 54.9583 102.583 52.8125 103.75 50.5625C104.917 48.3542 105.75 46.1667 106.25 44C106.75 41.7917 106.729 39.7917 106.188 38C102.438 40.7083 99.5208 42.4167 97.4375 43.125C95.3542 43.8333 93.8958 43.875 93.0625 43.25C92.2708 42.5833 92.0208 41.4167 92.3125 39.75C92.6042 38.0833 93.2292 36.25 94.1875 34.25C95.1458 32.25 96.3542 30.25 97.8125 28.25C99.2708 26.2083 100.771 24.5 102.312 23.125C103.854 21.75 105.333 20.875 106.75 20.5C108.208 20.125 109.417 20.5625 110.375 21.8125C111.333 23.1042 111.938 24.8542 112.188 27.0625C112.438 29.2292 112.375 31.6458 112 34.3125C111.625 36.9792 110.958 39.7708 110 42.6875C109.083 45.6042 107.938 48.4375 106.562 51.1875C105.188 53.9792 103.604 56.5625 101.812 58.9375C100.062 61.3125 98.1667 63.2917 96.125 64.875C94.0833 66.4583 91.9375 67.5208 89.6875 68.0625C87.4375 68.6458 85.1458 68.5 82.8125 67.625ZM95.5625 36.625C95.5208 36.75 95.4792 36.9792 95.4375 37.3125C95.4375 37.6458 95.4375 38 95.4375 38.375C95.4375 38.75 95.4375 39.1042 95.4375 39.4375C95.4792 39.7708 95.5208 40 95.5625 40.125C96.8958 40.4583 98.2708 40.1458 99.6875 39.1875C101.104 38.2292 102.396 37 103.562 35.5C104.771 34 105.771 32.4167 106.562 30.75C107.396 29.0833 107.896 27.6875 108.062 26.5625C108.271 25.4375 108.062 24.8125 107.438 24.6875C106.812 24.5208 105.667 25.1875 104 26.6875C103.5 27.1458 102.833 27.7708 102 28.5625C101.167 29.3542 100.312 30.2083 99.4375 31.125C98.6042 32.0417 97.8125 33 97.0625 34C96.3542 34.9583 95.8542 35.8333 95.5625 36.625Z" fill="black"/>
</svg>
