<svg width="240" height="49" viewBox="0 0 240 49" fill="none" xmlns="http://www.w3.org/2000/svg">
<path d="M6.6875 47.3125C4.14583 46.3125 2.39583 44.9583 1.4375 43.25C0.479167 41.5417 0.0833333 39.6458 0.25 37.5625C0.458333 35.4375 1.125 33.1875 2.25 30.8125C3.41667 28.3958 4.83333 25.9792 6.5 23.5625C8.20833 21.1458 10.0833 18.7917 12.125 16.5C14.1667 14.2083 16.1875 12.1042 18.1875 10.1875C20.1875 8.27083 22.0625 6.60417 23.8125 5.1875C25.5625 3.77083 26.9792 2.72917 28.0625 2.0625C29.5625 1.14583 30.8125 0.708333 31.8125 0.75C32.8125 0.75 33.6042 1.0625 34.1875 1.6875C34.8125 2.27083 35.2292 3.10417 35.4375 4.1875C35.6875 5.22917 35.7917 6.35417 35.75 7.5625C35.75 8.72917 35.625 9.91667 35.375 11.125C35.1667 12.2917 34.875 13.3125 34.5 14.1875C34.1667 15.0625 33.7917 15.7083 33.375 16.125C33 16.5417 32.625 16.5625 32.25 16.1875C32.2083 15.8542 32.25 15.3542 32.375 14.6875C32.5 13.9792 32.6458 13.1875 32.8125 12.3125C33.0208 11.4375 33.2083 10.5417 33.375 9.625C33.5417 8.70833 33.6458 7.875 33.6875 7.125C33.7708 6.33333 33.75 5.66667 33.625 5.125C33.5417 4.58333 33.3125 4.27083 32.9375 4.1875C31.4792 3.8125 29.7292 4.16667 27.6875 5.25C25.6875 6.29167 23.5833 7.8125 21.375 9.8125C19.2083 11.7708 17.0417 14.0625 14.875 16.6875C12.75 19.2708 10.8125 21.9375 9.0625 24.6875C7.3125 27.4375 5.875 30.125 4.75 32.75C3.625 35.3333 2.97917 37.625 2.8125 39.625C2.6875 41.5833 3.125 43.1042 4.125 44.1875C5.16667 45.2292 6.97917 45.5625 9.5625 45.1875C11.9375 44.8542 14.125 44.0208 16.125 42.6875C18.1667 41.3125 20.125 39.8125 22 38.1875C23.9167 36.5208 25.8125 34.8958 27.6875 33.3125C29.5625 31.6875 31.5208 30.4583 33.5625 29.625C34.3125 29.3333 34.8958 29.4375 35.3125 29.9375C35.7708 30.4375 35.8958 31.0417 35.6875 31.75C35.4375 32.4583 34.6875 33.3958 33.4375 34.5625C32.2292 35.7292 30.7083 36.9583 28.875 38.25C27.0833 39.5 25.1042 40.7708 22.9375 42.0625C20.7708 43.3125 18.6458 44.3958 16.5625 45.3125C14.5208 46.2292 12.6042 46.8958 10.8125 47.3125C9.0625 47.7292 7.6875 47.7292 6.6875 47.3125ZM44.5 47.3125C42.75 46.6042 41.6458 45.5417 41.1875 44.125C40.7708 42.7083 40.7917 41.1458 41.25 39.4375C41.7083 37.6875 42.5 35.8958 43.625 34.0625C44.75 32.1875 46 30.4792 47.375 28.9375C48.75 27.3958 50.125 26.1042 51.5 25.0625C52.9167 23.9792 54.125 23.375 55.125 23.25C57.7083 22.9167 59.7292 23.1042 61.1875 23.8125C62.6875 24.4792 63.7083 25.4583 64.25 26.75C64.7917 28.0417 64.9375 29.5625 64.6875 31.3125C64.4375 33.0208 63.875 34.75 63 36.5C62.1667 38.25 61.0625 39.9375 59.6875 41.5625C58.3542 43.1875 56.8542 44.5625 55.1875 45.6875C53.5625 46.7708 51.8333 47.5 50 47.875C48.1667 48.2083 46.3333 48.0208 44.5 47.3125ZM43.8125 43.75C44.1458 45.0833 44.8542 45.8333 45.9375 46C47.0208 46.125 48.2708 45.8542 49.6875 45.1875C51.1458 44.4792 52.6667 43.4792 54.25 42.1875C55.8333 40.8542 57.2708 39.4167 58.5625 37.875C59.8958 36.3333 60.9792 34.7917 61.8125 33.25C62.6875 31.6667 63.1042 30.2917 63.0625 29.125C63.0625 27.9583 62.5 27.0833 61.375 26.5C60.2917 25.875 58.4583 25.75 55.875 26.125C55.2917 26.6667 54.5417 27.3333 53.625 28.125C52.7083 28.875 51.75 29.7083 50.75 30.625C49.7917 31.5417 48.8333 32.5417 47.875 33.625C46.9167 34.6667 46.0833 35.75 45.375 36.875C44.6667 38 44.1458 39.1458 43.8125 40.3125C43.5208 41.4792 43.5208 42.625 43.8125 43.75ZM90.8125 47.3125C90.6875 45.9375 90.7917 44.5833 91.125 43.25C91.5 41.875 91.9792 40.5417 92.5625 39.25C93.1875 37.9167 93.8333 36.6042 94.5 35.3125C95.2083 33.9792 95.8125 32.6875 96.3125 31.4375C96.8125 30.1458 97.1667 28.8958 97.375 27.6875C97.5833 26.4375 97.5 25.2083 97.125 24C96.0833 23.625 94.875 23.7083 93.5 24.25C92.1667 24.7917 90.75 25.625 89.25 26.75C87.75 27.8333 86.1875 29.125 84.5625 30.625C82.9792 32.0833 81.4167 33.5833 79.875 35.125C78.375 36.625 76.9375 38.0625 75.5625 39.4375C74.1875 40.8125 72.9375 41.9583 71.8125 42.875C70.7292 43.75 69.8125 44.3125 69.0625 44.5625C68.3125 44.7708 67.8125 44.5 67.5625 43.75C67.5208 43.7083 67.75 43.1875 68.25 42.1875C68.7917 41.1458 69.4375 39.8542 70.1875 38.3125C70.9792 36.7708 71.8333 35.1042 72.75 33.3125C73.7083 31.5208 74.6042 29.8542 75.4375 28.3125C76.2708 26.7292 77 25.3958 77.625 24.3125C78.25 23.2292 78.6458 22.6458 78.8125 22.5625C79.6875 23.1458 80.125 23.7917 80.125 24.5C80.1667 25.1667 80.0625 25.875 79.8125 26.625C79.5625 27.3333 79.2708 28.0625 78.9375 28.8125C78.6458 29.5625 78.6042 30.3125 78.8125 31.0625C79.4792 30.6042 80.3958 29.9792 81.5625 29.1875C82.7708 28.3542 84.0625 27.5 85.4375 26.625C86.8542 25.75 88.3125 24.8958 89.8125 24.0625C91.3542 23.2292 92.7917 22.5833 94.125 22.125C95.4583 21.625 96.6458 21.3542 97.6875 21.3125C98.7708 21.2708 99.5625 21.5833 100.062 22.25C100.562 22.9167 100.708 24.0208 100.5 25.5625C100.333 27.0625 99.6875 29.125 98.5625 31.75C98.4375 32.0417 98.125 32.75 97.625 33.875C97.1667 34.9583 96.6458 36.1458 96.0625 37.4375C95.5208 38.6875 95 39.875 94.5 41C94.0417 42.0833 93.75 42.7708 93.625 43.0625C93.5833 43.2292 93.5208 43.5417 93.4375 44C93.3958 44.4167 93.3333 44.8958 93.25 45.4375C93.1667 45.9375 93.0417 46.4375 92.875 46.9375C92.7083 47.3958 92.5 47.75 92.25 48C92 48.25 91.7083 48.2292 91.375 47.9375C91.0417 47.6042 90.8542 47.3958 90.8125 47.3125ZM108.125 47.3125C108.083 47.2292 108.062 47 108.062 46.625C108.062 46.25 108.083 46 108.125 45.875C108.25 45.4167 108.479 44.625 108.812 43.5C109.146 42.3333 109.5 41.125 109.875 39.875C110.25 38.5833 110.604 37.375 110.938 36.25C111.271 35.125 111.5 34.3333 111.625 33.875C111.792 33.2917 111.979 32.625 112.188 31.875C112.396 31.0833 112.438 30.3333 112.312 29.625C111.688 29.5417 110.917 29.625 110 29.875C109.083 30.0833 108.167 30.2708 107.25 30.4375C106.375 30.5625 105.542 30.5625 104.75 30.4375C104 30.2708 103.458 29.7708 103.125 28.9375C103.625 27.8958 104.375 27.2292 105.375 26.9375C106.375 26.6042 107.458 26.375 108.625 26.25C109.792 26.125 110.896 25.9375 111.938 25.6875C113.021 25.4375 113.875 24.875 114.5 24C114.875 22.9167 115.312 21.6042 115.812 20.0625C116.354 18.4792 116.917 16.8333 117.5 15.125C118.083 13.4167 118.708 11.7292 119.375 10.0625C120.083 8.39583 120.812 6.91667 121.562 5.625C122.021 5.33333 122.396 5.3125 122.688 5.5625C122.979 5.8125 123.188 6.1875 123.312 6.6875C123.479 7.14583 123.583 7.625 123.625 8.125C123.667 8.625 123.667 8.95833 123.625 9.125C123.375 10.2083 122.938 11.375 122.312 12.625C121.729 13.8333 121.167 15.0625 120.625 16.3125C120.125 17.5625 119.708 18.8125 119.375 20.0625C119.083 21.3125 119.083 22.5 119.375 23.625H132.812C132.854 23.625 132.958 23.7708 133.125 24.0625C133.292 24.3125 133.438 24.5208 133.562 24.6875C133.771 25.2708 133.542 25.6667 132.875 25.875C132.208 26.0833 131.312 26.2292 130.188 26.3125C129.062 26.3542 127.771 26.3958 126.312 26.4375C124.896 26.4375 123.521 26.5417 122.188 26.75C120.896 26.9167 119.729 27.2292 118.688 27.6875C117.646 28.1042 116.938 28.75 116.562 29.625C115.479 32.4167 114.479 35.2292 113.562 38.0625C112.646 40.8542 111.771 43.6875 110.938 46.5625C110.854 46.6875 110.688 46.8958 110.438 47.1875C110.188 47.4375 109.917 47.6667 109.625 47.875C109.333 48.0417 109.042 48.1042 108.75 48.0625C108.5 48.0208 108.292 47.7708 108.125 47.3125ZM132.875 46.5625C131.875 45.7292 131.312 44.5 131.188 42.875C131.104 41.25 131.333 39.4167 131.875 37.375C132.458 35.3333 133.292 33.2083 134.375 31C135.5 28.75 136.792 26.625 138.25 24.625C139.708 22.5833 141.292 20.7708 143 19.1875C144.708 17.5625 146.417 16.375 148.125 15.625C149.833 14.8333 151.5 14.5625 153.125 14.8125C154.75 15.0208 156.229 15.9583 157.562 17.625C158.396 18.6667 158.896 19.7292 159.062 20.8125C159.229 21.8542 159.208 22.9375 159 24.0625C158.792 25.1458 158.458 26.2708 158 27.4375C157.542 28.5625 157.083 29.7083 156.625 30.875C156.208 32.0417 155.854 33.2292 155.562 34.4375C155.312 35.6458 155.271 36.875 155.438 38.125C155.646 39.7083 156.354 40.6458 157.562 40.9375C158.771 41.2292 160.208 41.1458 161.875 40.6875C163.583 40.2292 165.375 39.5 167.25 38.5C169.125 37.5 170.854 36.5 172.438 35.5C174.062 34.5 175.396 33.625 176.438 32.875C177.521 32.125 178.062 31.75 178.062 31.75C179.229 31.5 179.875 31.5833 180 32C180.167 32.375 179.938 32.9583 179.312 33.75C178.729 34.5 177.833 35.375 176.625 36.375C175.417 37.3333 174.042 38.2708 172.5 39.1875C170.958 40.1042 169.312 40.9375 167.562 41.6875C165.812 42.4375 164.104 42.9583 162.438 43.25C160.771 43.5 159.188 43.4792 157.688 43.1875C156.229 42.8542 155.021 42.1042 154.062 40.9375C153.604 40.4375 153.25 39.9375 153 39.4375C152.792 38.9375 152.438 38.5 151.938 38.125C151.312 38.7083 150.562 39.4792 149.688 40.4375C148.812 41.3542 147.854 42.2917 146.812 43.25C145.812 44.1667 144.729 45.0417 143.562 45.875C142.438 46.7083 141.271 47.3333 140.062 47.75C138.854 48.1667 137.625 48.3125 136.375 48.1875C135.167 48.0625 134 47.5208 132.875 46.5625ZM133.562 44.4375C133.938 45.7708 134.771 46.3958 136.062 46.3125C137.354 46.1875 138.854 45.5417 140.562 44.375C142.271 43.2083 144.042 41.625 145.875 39.625C147.708 37.5833 149.354 35.3333 150.812 32.875C152.271 30.375 153.375 27.75 154.125 25C154.917 22.25 155.125 19.5417 154.75 16.875C153.75 16.0833 152.5 16.0625 151 16.8125C149.5 17.5208 147.896 18.7083 146.188 20.375C144.521 22 142.854 23.9583 141.188 26.25C139.562 28.5 138.125 30.7917 136.875 33.125C135.625 35.4167 134.667 37.5833 134 39.625C133.375 41.6667 133.229 43.2708 133.562 44.4375ZM179.562 47.3125C177.438 46.6042 176.021 45.5 175.312 44C174.646 42.5 174.458 40.8125 174.75 38.9375C175.083 37.0208 175.812 35.0208 176.938 32.9375C178.062 30.8125 179.396 28.7917 180.938 26.875C182.479 24.9583 184.104 23.2292 185.812 21.6875C187.521 20.1458 189.125 18.9792 190.625 18.1875C192.167 17.3958 193.479 17.0833 194.562 17.25C195.646 17.4167 196.312 18.25 196.562 19.75C196.688 20.4167 196.604 21.1458 196.312 21.9375C196.062 22.7292 195.688 23.5 195.188 24.25C194.729 24.9583 194.188 25.625 193.562 26.25C192.979 26.8333 192.396 27.2708 191.812 27.5625C191.271 27.8542 190.771 27.9583 190.312 27.875C189.896 27.7917 189.625 27.4375 189.5 26.8125C190 25.9792 190.562 25.1458 191.188 24.3125C191.812 23.4375 192.417 22.625 193 21.875C192.75 21.4167 192.271 21.3125 191.562 21.5625C190.854 21.8125 190 22.3125 189 23.0625C188 23.8125 186.938 24.7708 185.812 25.9375C184.729 27.0625 183.667 28.2917 182.625 29.625C181.583 30.9583 180.646 32.3542 179.812 33.8125C179.021 35.2292 178.438 36.6042 178.062 37.9375C177.688 39.2708 177.583 40.5208 177.75 41.6875C177.958 42.8125 178.562 43.7292 179.562 44.4375C180.938 44.5625 182.521 44.4375 184.312 44.0625C186.104 43.6458 187.938 43.125 189.812 42.5C191.688 41.875 193.542 41.2083 195.375 40.5C197.25 39.75 198.938 39.0625 200.438 38.4375C201.979 37.8125 203.271 37.3333 204.312 37C205.396 36.625 206.104 36.5208 206.438 36.6875C207.229 37.1042 207.271 37.7083 206.562 38.5C205.896 39.2917 204.75 40.1458 203.125 41.0625C201.5 41.9792 199.562 42.8958 197.312 43.8125C195.104 44.6875 192.875 45.4583 190.625 46.125C188.375 46.75 186.25 47.2083 184.25 47.5C182.25 47.75 180.688 47.6875 179.562 47.3125ZM213.812 47.3125C213.771 47.2292 213.75 47 213.75 46.625C213.75 46.25 213.771 46 213.812 45.875C213.938 45.4167 214.167 44.625 214.5 43.5C214.833 42.3333 215.188 41.125 215.562 39.875C215.938 38.5833 216.292 37.375 216.625 36.25C216.958 35.125 217.188 34.3333 217.312 33.875C217.479 33.2917 217.667 32.625 217.875 31.875C218.083 31.0833 218.125 30.3333 218 29.625C217.375 29.5417 216.604 29.625 215.688 29.875C214.771 30.0833 213.854 30.2708 212.938 30.4375C212.062 30.5625 211.229 30.5625 210.438 30.4375C209.688 30.2708 209.146 29.7708 208.812 28.9375C209.312 27.8958 210.062 27.2292 211.062 26.9375C212.062 26.6042 213.146 26.375 214.312 26.25C215.479 26.125 216.583 25.9375 217.625 25.6875C218.708 25.4375 219.562 24.875 220.188 24C220.562 22.9167 221 21.6042 221.5 20.0625C222.042 18.4792 222.604 16.8333 223.188 15.125C223.771 13.4167 224.396 11.7292 225.062 10.0625C225.771 8.39583 226.5 6.91667 227.25 5.625C227.708 5.33333 228.083 5.3125 228.375 5.5625C228.667 5.8125 228.875 6.1875 229 6.6875C229.167 7.14583 229.271 7.625 229.312 8.125C229.354 8.625 229.354 8.95833 229.312 9.125C229.062 10.2083 228.625 11.375 228 12.625C227.417 13.8333 226.854 15.0625 226.312 16.3125C225.812 17.5625 225.396 18.8125 225.062 20.0625C224.771 21.3125 224.771 22.5 225.062 23.625H238.5C238.542 23.625 238.646 23.7708 238.812 24.0625C238.979 24.3125 239.125 24.5208 239.25 24.6875C239.458 25.2708 239.229 25.6667 238.562 25.875C237.896 26.0833 237 26.2292 235.875 26.3125C234.75 26.3542 233.458 26.3958 232 26.4375C230.583 26.4375 229.208 26.5417 227.875 26.75C226.583 26.9167 225.417 27.2292 224.375 27.6875C223.333 28.1042 222.625 28.75 222.25 29.625C221.167 32.4167 220.167 35.2292 219.25 38.0625C218.333 40.8542 217.458 43.6875 216.625 46.5625C216.542 46.6875 216.375 46.8958 216.125 47.1875C215.875 47.4375 215.604 47.6667 215.312 47.875C215.021 48.0417 214.729 48.1042 214.438 48.0625C214.188 48.0208 213.979 47.7708 213.812 47.3125Z" fill="black"/>
</svg>
