<svg width="191" height="51" viewBox="0 0 191 51" fill="none" xmlns="http://www.w3.org/2000/svg">
<path d="M1.4375 48.5625C1.10417 47.8958 1.08333 46.9792 1.375 45.8125C1.66667 44.6458 2.08333 43.4375 2.625 42.1875C3.20833 40.9375 3.8125 39.7292 4.4375 38.5625C5.0625 37.3958 5.54167 36.4375 5.875 35.6875C6 35.4375 6.08333 35.2292 6.125 35.0625C6.20833 34.8958 6.27083 34.7083 6.3125 34.5C6.39583 34.2917 6.47917 34.0625 6.5625 33.8125C6.64583 33.5625 6.79167 33.2083 7 32.75C7.25 32.2083 7.64583 31.375 8.1875 30.25C8.77083 29.0833 9.41667 27.7917 10.125 26.375C10.8333 24.9167 11.5625 23.3958 12.3125 21.8125C13.1042 20.2292 13.8333 18.7292 14.5 17.3125C15.2083 15.8542 15.8333 14.5625 16.375 13.4375C16.9583 12.2708 17.375 11.4167 17.625 10.875V9.4375C16.875 9.3125 16.1458 9.35417 15.4375 9.5625C14.7292 9.77083 14.0417 10.0625 13.375 10.4375C12.75 10.8125 12.125 11.25 11.5 11.75C10.9167 12.2083 10.375 12.625 9.875 13C9.29167 12.875 8.95833 12.6042 8.875 12.1875C8.79167 11.7708 8.83333 11.3333 9 10.875C9.16667 10.4167 9.39583 10 9.6875 9.625C10.0208 9.20833 10.3125 8.91667 10.5625 8.75C14.8958 6.04167 19.5417 4.25 24.5 3.375C29.4583 2.45833 34.4792 2.375 39.5625 3.125C42.6458 4.66667 44.75 6.3125 45.875 8.0625C47 9.77083 47.3958 11.5208 47.0625 13.3125C46.7708 15.1042 45.8542 16.875 44.3125 18.625C42.8125 20.375 40.9375 22.0625 38.6875 23.6875C36.4792 25.2708 34.0208 26.75 31.3125 28.125C28.6458 29.5 25.9792 30.6875 23.3125 31.6875C20.6875 32.6875 18.1875 33.4792 15.8125 34.0625C13.4375 34.6042 11.4583 34.875 9.875 34.875C9.08333 36.125 8.4375 37.1667 7.9375 38C7.4375 38.7917 7.04167 39.5 6.75 40.125C6.45833 40.7083 6.20833 41.2708 6 41.8125C5.83333 42.3125 5.64583 42.8958 5.4375 43.5625C5.27083 44.1875 5.04167 44.9583 4.75 45.875C4.45833 46.7917 4.0625 47.9375 3.5625 49.3125L2.875 50C2.70833 49.9167 2.4375 49.7083 2.0625 49.375C1.72917 49 1.52083 48.7292 1.4375 48.5625ZM12 31.3125C13.75 31.6042 15.6042 31.5625 17.5625 31.1875C19.5208 30.7708 21.4583 30.1875 23.375 29.4375C25.3333 28.6875 27.2083 27.8542 29 26.9375C30.7917 25.9792 32.4167 25.1042 33.875 24.3125C37.375 22.3542 39.9792 20.4583 41.6875 18.625C43.4375 16.75 44.5 15.0208 44.875 13.4375C45.25 11.8125 45.0625 10.375 44.3125 9.125C43.6042 7.875 42.5208 6.875 41.0625 6.125C39.6458 5.33333 37.9792 4.83333 36.0625 4.625C34.1875 4.41667 32.2708 4.5625 30.3125 5.0625C28.3958 5.5625 26.5625 6.45833 24.8125 7.75C23.0625 9.04167 21.6042 10.7917 20.4375 13C20.0208 13.7917 19.5208 14.7708 18.9375 15.9375C18.3542 17.0625 17.75 18.25 17.125 19.5C16.5 20.75 15.875 22 15.25 23.25C14.625 24.4583 14.0625 25.5625 13.5625 26.5625C13.1042 27.5208 12.7292 28.3125 12.4375 28.9375C12.1458 29.5625 12 29.8958 12 29.9375V31.3125ZM39.8125 49.3125C39.7292 49.2708 39.7292 48.7917 39.8125 47.875C39.9375 46.9167 40.1042 45.7292 40.3125 44.3125C40.5208 42.8958 40.7917 41.3333 41.125 39.625C41.4583 37.9167 41.8125 36.2917 42.1875 34.75C42.5625 33.1667 42.9583 31.7917 43.375 30.625C43.8333 29.4167 44.2708 28.5833 44.6875 28.125C44.9792 27.8333 45.2708 27.8333 45.5625 28.125C45.8542 28.375 46.1458 28.7083 46.4375 29.125C46.7292 29.5 47.0208 29.8542 47.3125 30.1875C47.6042 30.4792 47.9167 30.5 48.25 30.25C49.4167 28.625 50.6875 27.0833 52.0625 25.625C53.4792 24.125 55.0417 22.8333 56.75 21.75C56.9167 21.625 57.375 21.4375 58.125 21.1875C58.875 20.8958 59.7292 20.625 60.6875 20.375C61.6458 20.0833 62.625 19.8542 63.625 19.6875C64.6667 19.4792 65.5417 19.3958 66.25 19.4375C67 19.4375 67.5 19.625 67.75 20C68.0417 20.3333 67.9167 20.9167 67.375 21.75C64.875 21.7917 62.5417 22.5208 60.375 23.9375C58.2083 25.3542 56.2083 27.1042 54.375 29.1875C52.5417 31.2708 50.875 33.5417 49.375 36C47.875 38.4167 46.5625 40.6667 45.4375 42.75C44.3542 44.8333 43.4375 46.5625 42.6875 47.9375C41.9792 49.3125 41.4583 50 41.125 50C41.0833 50 40.8958 49.9167 40.5625 49.75C40.2292 49.5417 39.9792 49.3958 39.8125 49.3125ZM73.3125 49.3125C71.5625 48.6042 70.4583 47.5417 70 46.125C69.5833 44.7083 69.6042 43.1458 70.0625 41.4375C70.5208 39.6875 71.3125 37.8958 72.4375 36.0625C73.5625 34.1875 74.8125 32.4792 76.1875 30.9375C77.5625 29.3958 78.9375 28.1042 80.3125 27.0625C81.7292 25.9792 82.9375 25.375 83.9375 25.25C86.5208 24.9167 88.5417 25.1042 90 25.8125C91.5 26.4792 92.5208 27.4583 93.0625 28.75C93.6042 30.0417 93.75 31.5625 93.5 33.3125C93.25 35.0208 92.6875 36.75 91.8125 38.5C90.9792 40.25 89.875 41.9375 88.5 43.5625C87.1667 45.1875 85.6667 46.5625 84 47.6875C82.375 48.7708 80.6458 49.5 78.8125 49.875C76.9792 50.2083 75.1458 50.0208 73.3125 49.3125ZM72.625 45.75C72.9583 47.0833 73.6667 47.8333 74.75 48C75.8333 48.125 77.0833 47.8542 78.5 47.1875C79.9583 46.4792 81.4792 45.4792 83.0625 44.1875C84.6458 42.8542 86.0833 41.4167 87.375 39.875C88.7083 38.3333 89.7917 36.7917 90.625 35.25C91.5 33.6667 91.9167 32.2917 91.875 31.125C91.875 29.9583 91.3125 29.0833 90.1875 28.5C89.1042 27.875 87.2708 27.75 84.6875 28.125C84.1042 28.6667 83.3542 29.3333 82.4375 30.125C81.5208 30.875 80.5625 31.7083 79.5625 32.625C78.6042 33.5417 77.6458 34.5417 76.6875 35.625C75.7292 36.6667 74.8958 37.75 74.1875 38.875C73.4792 40 72.9583 41.1458 72.625 42.3125C72.3333 43.4792 72.3333 44.625 72.625 45.75ZM97.75 48.5625C97.6667 48.4792 97.625 48.25 97.625 47.875C97.625 47.5 97.6667 47.2708 97.75 47.1875L103 35.125H97.0625C96.9375 35.125 96.8125 35.0417 96.6875 34.875C96.6042 34.7083 96.5208 34.5208 96.4375 34.3125C96.3958 34.0625 96.3542 33.8333 96.3125 33.625C96.2708 33.375 96.2917 33.1875 96.375 33.0625C96.5 33.0208 96.7292 32.9375 97.0625 32.8125C97.3958 32.6875 97.75 32.5417 98.125 32.375C98.5 32.2083 98.8542 32.0625 99.1875 31.9375C99.5208 31.8125 99.75 31.7083 99.875 31.625C100 31.5833 100.333 31.4583 100.875 31.25C101.458 31.0417 102.062 30.8333 102.688 30.625C103.354 30.375 103.958 30.1458 104.5 29.9375C105.042 29.7292 105.375 29.5833 105.5 29.5C106 29.1667 106.583 28.3542 107.25 27.0625C107.958 25.7292 108.75 24.1458 109.625 22.3125C110.5 20.4792 111.458 18.5208 112.5 16.4375C113.542 14.3125 114.667 12.2917 115.875 10.375C117.083 8.41667 118.354 6.6875 119.688 5.1875C121.021 3.64583 122.396 2.5625 123.812 1.9375C125.271 1.27083 126.771 1.16667 128.312 1.625C129.854 2.08333 131.438 3.3125 133.062 5.3125C133.354 5.72917 133.562 6.1875 133.688 6.6875C133.812 7.14583 133.833 7.625 133.75 8.125C133.375 8.33333 133 8.375 132.625 8.25C132.25 8.125 131.896 7.91667 131.562 7.625C131.271 7.33333 131 7.04167 130.75 6.75C130.5 6.41667 130.333 6.16667 130.25 6C127.458 5.54167 125.229 5.66667 123.562 6.375C121.938 7.04167 120.583 8.08333 119.5 9.5C118.458 10.875 117.542 12.5208 116.75 14.4375C115.958 16.3542 115.042 18.3333 114 20.375C113.708 20.875 113.354 21.5208 112.938 22.3125C112.562 23.1042 112.188 23.875 111.812 24.625C111.438 25.375 111.104 26.0208 110.812 26.5625C110.562 27.1042 110.438 27.375 110.438 27.375V28.125C110.438 28.2917 110.958 28.4167 112 28.5C113.042 28.5833 114.208 28.7083 115.5 28.875C116.833 29.0417 118.104 29.2917 119.312 29.625C120.562 29.9167 121.375 30.3542 121.75 30.9375L121.062 31.625C118.688 31.5 116.688 31.4583 115.062 31.5C113.438 31.5417 112.021 31.8125 110.812 32.3125C109.604 32.8125 108.542 33.625 107.625 34.75C106.708 35.8333 105.771 37.375 104.812 39.375C104.479 40.0833 104.042 41 103.5 42.125C102.958 43.2083 102.417 44.2917 101.875 45.375C101.333 46.4167 100.875 47.3333 100.5 48.125C100.125 48.875 99.9167 49.2708 99.875 49.3125L99.125 50C99 49.9167 98.75 49.7083 98.375 49.375C98.0417 49 97.8333 48.7292 97.75 48.5625ZM125.312 49.3125C127.021 43.8125 128.562 39.4583 129.938 36.25C131.354 33 132.521 30.7292 133.438 29.4375C134.396 28.1458 135.042 27.7292 135.375 28.1875C135.708 28.6458 135.667 29.8125 135.25 31.6875C134.875 33.5625 134.042 36.0833 132.75 39.25C131.5 42.375 129.729 45.9583 127.438 50C127.104 50.125 126.708 50.1458 126.25 50.0625C125.792 49.9792 125.479 49.7292 125.312 49.3125ZM136.25 19.25C136.167 19.0417 136.125 18.6667 136.125 18.125C136.125 17.5833 136.167 17.25 136.25 17.125C137.208 16.7917 137.938 16.75 138.438 17C138.938 17.25 139.25 17.625 139.375 18.125C139.5 18.5833 139.479 19.0833 139.312 19.625C139.188 20.1667 138.958 20.5833 138.625 20.875C138.292 21.125 137.896 21.1667 137.438 21C137.021 20.7917 136.625 20.2083 136.25 19.25ZM144.062 49.3125C142.854 48.4375 142.062 47.3333 141.688 46C141.354 44.6667 141.312 43.2292 141.562 41.6875C141.812 40.1042 142.25 38.4792 142.875 36.8125C143.542 35.1458 144.25 33.5417 145 32C145.792 30.4583 146.542 29.0417 147.25 27.75C148 26.4583 148.583 25.3958 149 24.5625C149.125 24.3125 149.417 23.7083 149.875 22.75C150.375 21.7917 150.896 20.75 151.438 19.625C151.979 18.5 152.479 17.4583 152.938 16.5C153.438 15.5 153.75 14.875 153.875 14.625C154 14.4167 154.167 14.0208 154.375 13.4375C154.625 12.8125 154.896 12.1458 155.188 11.4375C155.479 10.7292 155.792 10.0625 156.125 9.4375C156.5 8.77083 156.875 8.29167 157.25 8C157.667 7.70833 158.062 7.66667 158.438 7.875C158.854 8.08333 159.25 8.70833 159.625 9.75C159.458 10.1667 159.042 11 158.375 12.25C157.75 13.5 157 15 156.125 16.75C155.25 18.5 154.271 20.4375 153.188 22.5625C152.146 24.6875 151.125 26.8333 150.125 29C149.125 31.1667 148.188 33.2917 147.312 35.375C146.438 37.4167 145.708 39.2917 145.125 41C144.583 42.6667 144.25 44.0625 144.125 45.1875C144.042 46.2708 144.25 46.9375 144.75 47.1875C145.333 47.4792 146.083 47.6042 147 47.5625C147.958 47.4792 148.938 47.3542 149.938 47.1875C150.938 47.0208 151.917 46.8542 152.875 46.6875C153.833 46.4792 154.667 46.3958 155.375 46.4375C155.542 46.8125 155.417 47.1875 155 47.5625C154.583 47.8958 154 48.2083 153.25 48.5C152.5 48.75 151.625 48.9792 150.625 49.1875C149.667 49.3542 148.729 49.4792 147.812 49.5625C146.938 49.6458 146.146 49.6667 145.438 49.625C144.771 49.5833 144.312 49.4792 144.062 49.3125ZM166.312 49.3125C165.062 48.8958 164.104 48.2708 163.438 47.4375C162.812 46.5625 162.396 45.6042 162.188 44.5625C161.979 43.5208 161.938 42.4375 162.062 41.3125C162.229 40.1458 162.479 39.0417 162.812 38C164.062 36.6667 165.458 35.1458 167 33.4375C168.583 31.6875 170.25 29.9792 172 28.3125C173.75 26.6458 175.562 25.1042 177.438 23.6875C179.354 22.2292 181.292 21.125 183.25 20.375C183.917 20.0833 184.438 20.1042 184.812 20.4375C185.229 20.7292 185.521 21.2083 185.688 21.875C185.854 22.5417 185.917 23.3125 185.875 24.1875C185.875 25.0625 185.812 25.9167 185.688 26.75C185.562 27.5833 185.396 28.3333 185.188 29C184.979 29.6667 184.771 30.125 184.562 30.375C184.062 30.9583 183.083 31.6458 181.625 32.4375C180.208 33.2292 178.625 34.1042 176.875 35.0625C175.125 35.9792 173.375 36.9375 171.625 37.9375C169.875 38.9375 168.438 39.9375 167.312 40.9375C166.188 41.8958 165.521 42.8542 165.312 43.8125C165.104 44.7708 165.688 45.6458 167.062 46.4375C168.479 46.6042 170.188 46.5417 172.188 46.25C174.229 45.9167 176.292 45.5 178.375 45C180.5 44.4583 182.542 43.9167 184.5 43.375C186.458 42.7917 188.062 42.3333 189.312 42L190.062 42.6875C189.146 43.8958 187.646 45 185.562 46C183.479 47 181.229 47.8333 178.812 48.5C176.396 49.125 174.042 49.5417 171.75 49.75C169.458 49.9167 167.646 49.7708 166.312 49.3125ZM181.25 25.4375C181.208 25.3958 180.896 25.5833 180.312 26C179.729 26.375 179 26.8958 178.125 27.5625C177.292 28.1875 176.375 28.8958 175.375 29.6875C174.417 30.4375 173.521 31.1458 172.688 31.8125C171.896 32.4792 171.229 33.0625 170.688 33.5625C170.146 34.0208 169.917 34.25 170 34.25C170.667 34.375 171.521 34.2917 172.562 34C173.646 33.6667 174.75 33.2083 175.875 32.625C177.042 32.0417 178.146 31.3958 179.188 30.6875C180.229 29.9375 181.042 29.2083 181.625 28.5C182.25 27.7917 182.562 27.1667 182.562 26.625C182.604 26.0833 182.167 25.6875 181.25 25.4375Z" fill="black"/>
</svg>
