<svg width="170" height="51" viewBox="0 0 170 51" fill="none" xmlns="http://www.w3.org/2000/svg">
<path d="M1.875 49.3125C1.33333 48.5208 0.916667 47.2083 0.625 45.375C0.375 43.5417 0.208333 41.4167 0.125 39C0.0833333 36.5833 0.125 33.9583 0.25 31.125C0.375 28.2917 0.5625 25.4792 0.8125 22.6875C1.0625 19.8958 1.375 17.2083 1.75 14.625C2.16667 12.0417 2.60417 9.79167 3.0625 7.875C3.52083 5.91667 4 4.39583 4.5 3.3125C5 2.22917 5.52083 1.77083 6.0625 1.9375C6.14583 2.02083 6.27083 2.14583 6.4375 2.3125C6.64583 2.47917 6.77083 2.60417 6.8125 2.6875C6.85417 3.14583 6.8125 4.02083 6.6875 5.3125C6.5625 6.5625 6.375 8.08333 6.125 9.875C5.91667 11.625 5.66667 13.5625 5.375 15.6875C5.125 17.8125 4.85417 19.9792 4.5625 22.1875C4.27083 24.3542 4 26.4792 3.75 28.5625C3.5 30.6042 3.29167 32.4583 3.125 34.125C3 35.75 2.9375 37.1042 2.9375 38.1875C2.9375 39.2708 3.04167 39.9167 3.25 40.125L3.9375 40.875C4.5625 40.5833 5.20833 39.8333 5.875 38.625C6.54167 37.375 7.20833 35.875 7.875 34.125C8.58333 32.3333 9.29167 30.375 10 28.25C10.75 26.125 11.4792 24.0417 12.1875 22C12.9375 19.9167 13.6667 17.9583 14.375 16.125C15.0833 14.2917 15.7917 12.7917 16.5 11.625C17.2083 10.4583 17.8958 9.72917 18.5625 9.4375C19.2292 9.10417 19.8542 9.41667 20.4375 10.375C21.0625 11.2917 21.6458 12.9375 22.1875 15.3125C22.7708 17.6875 23.2917 21 23.75 25.25C23.75 25.4583 23.8542 26.125 24.0625 27.25C24.2708 28.3333 24.5208 29.6042 24.8125 31.0625C25.1458 32.4792 25.5208 33.9375 25.9375 35.4375C26.3542 36.8958 26.7917 38.125 27.25 39.125C27.7083 40.0833 28.1875 40.6667 28.6875 40.875C29.1875 41.0417 29.6667 40.5417 30.125 39.375C30.25 39.0417 30.5208 38.3333 30.9375 37.25C31.3958 36.1667 31.9167 34.8958 32.5 33.4375C33.0833 31.9792 33.6875 30.4375 34.3125 28.8125C34.9792 27.1875 35.6042 25.6458 36.1875 24.1875C36.7708 22.7292 37.2708 21.4583 37.6875 20.375C38.1458 19.2917 38.4583 18.5625 38.625 18.1875C38.7917 17.7708 39.0625 17.0208 39.4375 15.9375C39.8125 14.8542 40.2708 13.6458 40.8125 12.3125C41.3958 10.9375 42.0417 9.52083 42.75 8.0625C43.4583 6.60417 44.2083 5.3125 45 4.1875C45.7917 3.02083 46.6042 2.125 47.4375 1.5C48.3125 0.875 49.1875 0.708333 50.0625 1C50.1458 1 50.2708 1.10417 50.4375 1.3125C50.6042 1.47917 50.6875 1.60417 50.6875 1.6875C48.1042 5.02083 45.9583 8.35417 44.25 11.6875C42.5833 15.0208 41.1042 18.4375 39.8125 21.9375C38.5625 25.3958 37.3542 28.9375 36.1875 32.5625C35.0625 36.1458 33.75 39.8333 32.25 43.625C31.625 45.25 30.9583 46.1875 30.25 46.4375C29.5833 46.6875 28.9167 46.4583 28.25 45.75C27.5833 45 26.9167 43.8958 26.25 42.4375C25.625 40.9792 25.0208 39.3542 24.4375 37.5625C23.8542 35.7292 23.3125 33.8542 22.8125 31.9375C22.3125 30.0208 21.875 28.25 21.5 26.625C21.125 24.9583 20.8125 23.5625 20.5625 22.4375C20.3542 21.2708 20.2292 20.5833 20.1875 20.375C20.1042 20.0417 20.0208 19.6458 19.9375 19.1875C19.8958 18.7292 19.8333 18.2708 19.75 17.8125C19.6667 17.3125 19.5833 16.75 19.5 16.125H18.8125C18.7708 16.125 18.5208 16.5625 18.0625 17.4375C17.6042 18.2708 17.0625 19.2917 16.4375 20.5C15.8542 21.6667 15.25 22.8958 14.625 24.1875C14 25.4792 13.5 26.5417 13.125 27.375C12.9167 27.7917 12.5833 28.7708 12.125 30.3125C11.7083 31.8125 11.1875 33.5417 10.5625 35.5C9.9375 37.4583 9.25 39.4583 8.5 41.5C7.79167 43.5417 7.04167 45.3125 6.25 46.8125C5.5 48.2708 4.72917 49.2917 3.9375 49.875C3.1875 50.4583 2.5 50.2708 1.875 49.3125ZM47.8125 49.3125C46.0625 48.6042 44.9583 47.5417 44.5 46.125C44.0833 44.7083 44.1042 43.1458 44.5625 41.4375C45.0208 39.6875 45.8125 37.8958 46.9375 36.0625C48.0625 34.1875 49.3125 32.4792 50.6875 30.9375C52.0625 29.3958 53.4375 28.1042 54.8125 27.0625C56.2292 25.9792 57.4375 25.375 58.4375 25.25C61.0208 24.9167 63.0417 25.1042 64.5 25.8125C66 26.4792 67.0208 27.4583 67.5625 28.75C68.1042 30.0417 68.25 31.5625 68 33.3125C67.75 35.0208 67.1875 36.75 66.3125 38.5C65.4792 40.25 64.375 41.9375 63 43.5625C61.6667 45.1875 60.1667 46.5625 58.5 47.6875C56.875 48.7708 55.1458 49.5 53.3125 49.875C51.4792 50.2083 49.6458 50.0208 47.8125 49.3125ZM47.125 45.75C47.4583 47.0833 48.1667 47.8333 49.25 48C50.3333 48.125 51.5833 47.8542 53 47.1875C54.4583 46.4792 55.9792 45.4792 57.5625 44.1875C59.1458 42.8542 60.5833 41.4167 61.875 39.875C63.2083 38.3333 64.2917 36.7917 65.125 35.25C66 33.6667 66.4167 32.2917 66.375 31.125C66.375 29.9583 65.8125 29.0833 64.6875 28.5C63.6042 27.875 61.7708 27.75 59.1875 28.125C58.6042 28.6667 57.8542 29.3333 56.9375 30.125C56.0208 30.875 55.0625 31.7083 54.0625 32.625C53.1042 33.5417 52.1458 34.5417 51.1875 35.625C50.2292 36.6667 49.3958 37.75 48.6875 38.875C47.9792 40 47.4583 41.1458 47.125 42.3125C46.8333 43.4792 46.8333 44.625 47.125 45.75ZM71.5625 49.3125C71.4792 49.2708 71.4792 48.7917 71.5625 47.875C71.6875 46.9167 71.8542 45.7292 72.0625 44.3125C72.2708 42.8958 72.5417 41.3333 72.875 39.625C73.2083 37.9167 73.5625 36.2917 73.9375 34.75C74.3125 33.1667 74.7083 31.7917 75.125 30.625C75.5833 29.4167 76.0208 28.5833 76.4375 28.125C76.7292 27.8333 77.0208 27.8333 77.3125 28.125C77.6042 28.375 77.8958 28.7083 78.1875 29.125C78.4792 29.5 78.7708 29.8542 79.0625 30.1875C79.3542 30.4792 79.6667 30.5 80 30.25C81.1667 28.625 82.4375 27.0833 83.8125 25.625C85.2292 24.125 86.7917 22.8333 88.5 21.75C88.6667 21.625 89.125 21.4375 89.875 21.1875C90.625 20.8958 91.4792 20.625 92.4375 20.375C93.3958 20.0833 94.375 19.8542 95.375 19.6875C96.4167 19.4792 97.2917 19.3958 98 19.4375C98.75 19.4375 99.25 19.625 99.5 20C99.7917 20.3333 99.6667 20.9167 99.125 21.75C96.625 21.7917 94.2917 22.5208 92.125 23.9375C89.9583 25.3542 87.9583 27.1042 86.125 29.1875C84.2917 31.2708 82.625 33.5417 81.125 36C79.625 38.4167 78.3125 40.6667 77.1875 42.75C76.1042 44.8333 75.1875 46.5625 74.4375 47.9375C73.7292 49.3125 73.2083 50 72.875 50C72.8333 50 72.6458 49.9167 72.3125 49.75C71.9792 49.5417 71.7292 49.3958 71.5625 49.3125ZM126.625 47.875C123.958 44.2083 121.812 41.1875 120.188 38.8125C118.562 36.3958 117.229 34.6042 116.188 33.4375C115.146 32.2708 114.292 31.7083 113.625 31.75C112.958 31.7917 112.229 32.4375 111.438 33.6875C110.688 34.8958 109.75 36.6875 108.625 39.0625C107.5 41.4375 105.958 44.375 104 47.875C103.75 48.3333 103.479 48.625 103.188 48.75C102.938 48.8333 102.688 48.8333 102.438 48.75C102.188 48.625 101.958 48.4167 101.75 48.125C101.542 47.8333 101.375 47.5208 101.25 47.1875C101.125 46.7708 101.271 45.9792 101.688 44.8125C102.104 43.6042 102.708 42.1667 103.5 40.5C104.333 38.7917 105.292 36.9167 106.375 34.875C107.5 32.7917 108.667 30.6667 109.875 28.5C111.125 26.3333 112.354 24.1875 113.562 22.0625C114.812 19.9375 115.958 17.9792 117 16.1875C118.083 14.3542 119.042 12.75 119.875 11.375C120.708 10 121.312 8.97917 121.688 8.3125C121.979 8.10417 122.271 8.08333 122.562 8.25C122.896 8.41667 123.167 8.6875 123.375 9.0625C123.625 9.39583 123.792 9.77083 123.875 10.1875C123.958 10.5625 123.917 10.875 123.75 11.125L118.125 21V22.4375C119 22.6458 120.083 22.5833 121.375 22.25C122.708 21.875 124.125 21.3542 125.625 20.6875C127.167 20.0208 128.729 19.25 130.312 18.375C131.896 17.4583 133.396 16.5625 134.812 15.6875C136.271 14.7708 137.562 13.9167 138.688 13.125C139.854 12.2917 140.771 11.625 141.438 11.125C141.979 10.8333 142.458 10.75 142.875 10.875C143.333 11 143.667 11.2292 143.875 11.5625C144.125 11.8958 144.229 12.2917 144.188 12.75C144.146 13.2083 143.938 13.625 143.562 14C142.396 15.2083 141 16.25 139.375 17.125C137.792 17.9583 136.104 18.7292 134.312 19.4375C132.521 20.1042 130.688 20.75 128.812 21.375C126.979 21.9583 125.208 22.6042 123.5 23.3125C121.792 24.0208 120.229 24.8125 118.812 25.6875C117.396 26.5625 116.229 27.6042 115.312 28.8125C115.854 29.2708 116.562 30 117.438 31C118.354 31.9583 119.333 33.0417 120.375 34.25C121.458 35.4583 122.542 36.75 123.625 38.125C124.708 39.4583 125.667 40.7708 126.5 42.0625C127.375 43.3125 128.083 44.4583 128.625 45.5C129.208 46.5 129.5 47.2917 129.5 47.875V49.3125C129.167 49.4792 128.854 49.5417 128.562 49.5C128.312 49.4167 128.062 49.2917 127.812 49.125C127.562 48.9583 127.333 48.7708 127.125 48.5625C126.958 48.3125 126.792 48.0833 126.625 47.875ZM147.5 49.3125C147 48.9792 146.979 48.5417 147.438 48C147.938 47.4167 148.708 46.8125 149.75 46.1875C150.833 45.5208 152.083 44.8333 153.5 44.125C154.917 43.4167 156.271 42.75 157.562 42.125C158.896 41.5 160.062 40.9583 161.062 40.5C162.062 40 162.708 39.625 163 39.375C164.375 38.2083 165.083 37.25 165.125 36.5C165.208 35.7083 164.875 35.0833 164.125 34.625C163.375 34.125 162.312 33.75 160.938 33.5C159.604 33.2083 158.208 32.9583 156.75 32.75C155.333 32.5 153.958 32.25 152.625 32C151.333 31.75 150.354 31.4167 149.688 31C149.021 30.5833 148.792 30.0417 149 29.375C149.25 28.6667 150.167 27.7708 151.75 26.6875C152.333 26.2708 153.188 25.6667 154.312 24.875C155.438 24.0833 156.646 23.2708 157.938 22.4375C159.271 21.6042 160.583 20.8542 161.875 20.1875C163.167 19.5208 164.25 19.0833 165.125 18.875C165.583 18.7917 166.042 18.8333 166.5 19C167 19.1667 167.396 19.4167 167.688 19.75C167.979 20.0417 168.104 20.375 168.062 20.75C168.062 21.125 167.792 21.4583 167.25 21.75C164.875 23.0833 162.583 24.3333 160.375 25.5C158.208 26.6667 156.021 28 153.812 29.5C153.688 29.8333 153.708 30.125 153.875 30.375C154.083 30.625 154.312 30.8125 154.562 30.9375C158.979 31.3958 162.292 32.0417 164.5 32.875C166.75 33.7083 168.167 34.625 168.75 35.625C169.375 36.625 169.312 37.6875 168.562 38.8125C167.812 39.9375 166.688 41.0417 165.188 42.125C163.729 43.2083 162.042 44.2292 160.125 45.1875C158.208 46.1458 156.354 46.9583 154.562 47.625C152.812 48.2917 151.271 48.7917 149.938 49.125C148.604 49.4583 147.792 49.5208 147.5 49.3125Z" fill="black"/>
</svg>
